<?xml version="1.0" encoding="UTF-8" standalone="no"?>
<svg
   xmlns:dc="http://purl.org/dc/elements/1.1/"
   xmlns:cc="http://creativecommons.org/ns#"
   xmlns:rdf="http://www.w3.org/1999/02/22-rdf-syntax-ns#"
   xmlns:svg="http://www.w3.org/2000/svg"
   xmlns="http://www.w3.org/2000/svg"
   xmlns:sodipodi="http://sodipodi.sourceforge.net/DTD/sodipodi-0.dtd"
   xmlns:inkscape="http://www.inkscape.org/namespaces/inkscape"
   viewBox="0 0 24 24"
   version="1.1"
   id="svg6"
   sodipodi:docname="chronometer-pause-24.svg"
   inkscape:version="0.92.3 (2405546, 2018-03-11)">
  <metadata
     id="metadata10">
    <rdf:RDF>
      <cc:Work
         rdf:about="">
        <dc:format>image/svg+xml</dc:format>
        <dc:type
           rdf:resource="http://purl.org/dc/dcmitype/StillImage" />
      </cc:Work>
    </rdf:RDF>
  </metadata>
  <sodipodi:namedview
     pagecolor="#ffffff"
     bordercolor="#666666"
     borderopacity="1"
     objecttolerance="10"
     gridtolerance="10"
     guidetolerance="10"
     inkscape:pageopacity="0"
     inkscape:pageshadow="2"
     inkscape:window-width="640"
     inkscape:window-height="480"
     id="namedview8"
     showgrid="false"
     inkscape:zoom="9.8333333"
     inkscape:cx="12"
     inkscape:cy="12"
     inkscape:window-x="0"
     inkscape:window-y="0"
     inkscape:window-maximized="0"
     inkscape:current-layer="svg6" />
  <defs
     id="defs3051">
    <style
       type="text/css"
       id="current-color-scheme">
      .ColorScheme-Text {
        color:#4d4d4d;
      }
      </style>
  </defs>
  <path
     style="color:#4d4d4d;fill:currentColor;fill-opacity:1;stroke:none"
     d="m 8.9980469,10.001953 v 6 h 2.0000001 v -6 z m 4.0078121,0 v 6 h 2 v -6 z"
     class="ColorScheme-Text"
     id="path4"
     inkscape:connector-curvature="0"
     sodipodi:nodetypes="cccccccccc" />
  <path
     inkscape:connector-curvature="0"
     style="color:#4d4d4d;fill:currentColor;fill-opacity:1;stroke:none"
     d="m 12,4 c -1.107998,0 -2,0.892002 -2,2 0,0.097284 0.01172,0.1920363 0.02539,0.2851562 C 7.1157436,7.1341513 5,9.808893 5,13 c 0,3.878 3.122,7 7,7 3.878,0 7,-3.122 7,-7 C 19,11.413699 18.47267,9.9584804 17.589844,8.7871094 17.832877,8.6050134 18,8.328399 18,8 18,7.446 17.554,7 17,7 16.671601,7 16.394987,7.1671232 16.212891,7.4101562 15.548742,6.9096073 14.794688,6.5244442 13.974609,6.2851562 13.988279,6.1920363 14,6.097283 14,6 14,4.892002 13.107998,4 12,4 Z m 0,1 c 0.554004,0 1,0.445996 1,1 0,0.027034 -0.01353,0.049691 -0.01563,0.076172 C 12.661843,6.0310029 12.335376,6 12,6 11.664624,6 11.338163,6.0310029 11.015625,6.0761719 11.01354,6.0496909 11,6.027034 11,6 11,5.445996 11.445996,5 12,5 Z m 0,2 c 0.25958,0 0.513703,0.01932 0.763672,0.052734 0.03476,0.00439 0.06895,0.010651 0.103516,0.015625 0.242093,0.036669 0.480551,0.085481 0.71289,0.1484375 C 16.131022,7.9080249 18,10.224417 18,13 c 0,3.324 -2.676,6 -6,6 -3.324,0 -6,-2.676 -6,-6 0,-2.775584 1.8689779,-5.0919751 4.419922,-5.7832031 0.23234,-0.062957 0.470797,-0.1117675 0.71289,-0.1484375 0.03457,-0.00497 0.06876,-0.011239 0.103516,-0.015625 C 11.486297,7.0193204 11.74042,7 12,7 Z"
     class="ColorScheme-Text"
     id="path4-3"
     sodipodi:nodetypes="sscssscssccsssscscssscccssssccs" />
</svg>
